<?xml version="1.0" encoding="utf-8"?>
<!-- Generator: Adobe Illustrator 19.2.0, SVG Export Plug-In . SVG Version: 6.00 Build 0)  -->
<svg version="1.1" id="Layer_1" xmlns="http://www.w3.org/2000/svg" xmlns:xlink="http://www.w3.org/1999/xlink" x="0px" y="0px"
	 viewBox="0 0 720 144" style="enable-background:new 0 0 720 144;" xml:space="preserve">
<style type="text/css">
	.st0{fill:#185683;}
	.st1{fill:#098ABD;}
</style>
<g id="Word_Mark_1_">
	<polygon id="L_1_" class="st0" points="630.2,103.3 630.2,42.1 641.3,42.1 641.3,93.6 668.9,93.6 668.9,103.3 	"/>
	<path id="Q_1_" class="st0" d="M581.1,104.8c-4.8,0-9.2-0.8-13.3-2.2c-4.1-1.5-7.6-3.6-10.6-6.3c-3-2.7-5.3-6-6.9-9.9
		c-1.6-3.8-2.4-9-2.4-13.7c0-4.6,0.9-9.6,2.5-13.4c1.7-3.8,4-7.1,7-9.9c2.9-2.8,6.5-4.9,10.6-6.5c4.1-1.5,8.5-2.3,13.3-2.3
		c4.7,0,9.2,0.8,13.2,2.3c4,1.5,7.6,3.7,10.5,6.5c3,2.8,5.3,6.1,6.9,9.9c1.7,3.8,2.5,8.8,2.5,13.4c0,5.4-1.2,11.1-3.6,15.2
		c-2.3,3.9-6.2,7.8-9.7,9.7c-0.5,0.3-1,0.6-1.5,0.8l12.8,4.2v8.4L581.1,104.8z M581.4,50.2c-3.3,0-6.3,0.6-8.9,1.7
		c-2.6,1.1-4.9,2.7-6.8,4.7c-1.9,2-3.4,4.3-4.4,6.9c-1,2.6-1.5,6.3-1.5,9.3c0,3.1,0.5,6.7,1.5,9.4c1,2.6,2.5,5,4.3,6.9
		c1.9,1.9,4.1,3.5,6.7,4.6c2.6,1.1,5.6,1.7,8.9,1.7c3.2,0,6.1-0.6,8.8-1.7c2.7-1.1,4.9-2.7,6.8-4.6c1.9-1.9,3.3-4.2,4.4-6.9
		c1-2.7,1.6-6.3,1.6-9.4c0-3-0.5-6.7-1.5-9.3c-1-2.6-2.4-4.9-4.3-6.9c-1.9-1.9-4.1-3.5-6.7-4.7C587.7,50.7,584.7,50.2,581.4,50.2z"
		/>
	<path id="S_1_" class="st0" d="M514.4,104.8c-4,0-8-0.8-11.8-2.3c-3.8-1.5-7-3.8-9.5-6.7l-0.8-0.9l8.7-7l0.8,1.1
		c1.3,1.9,3.2,3.4,5.4,4.6c2.2,1.2,4.7,1.8,7.3,1.8c1.3,0,2.7-0.2,4-0.5c1.3-0.3,2.5-0.9,3.6-1.6c1-0.7,1.9-1.7,2.6-2.8
		c0.6-1.1,1-2.4,1-3.9c0-1.5-0.3-2.8-1-3.8c-0.7-1-1.6-1.9-2.8-2.7c-1.2-0.8-2.7-1.4-4.4-2c-1.7-0.6-3.6-1.2-5.6-1.8
		c-2-0.6-4-1.3-6-2.1c-2-0.8-3.9-1.9-5.5-3.3c-1.6-1.3-3-3-4-5c-1-2-1.5-4.4-1.5-7.3c0-3.1,0.7-5.9,2-8.1c1.3-2.2,3.1-4.1,5.2-5.6
		c2.1-1.5,4.5-2.5,7.2-3.2c2.6-0.7,5.3-1,7.9-1c3.7,0,7.3,0.6,10.6,1.9c3.3,1.3,6,3,8,5.2l0.8,0.8l-8,7.4l-0.8-1.1
		c-1.1-1.4-2.6-2.7-4.5-3.6c-1.9-0.9-4.1-1.4-6.5-1.4c-1.3,0-2.6,0.2-3.9,0.5c-1.3,0.3-2.4,0.8-3.5,1.6c-1,0.7-1.9,1.6-2.5,2.6
		c-0.6,1-0.9,2.2-0.9,3.7c0,1.4,0.3,2.5,0.8,3.4c0.6,0.9,1.4,1.7,2.3,2.4c1,0.7,2.3,1.3,3.7,1.8c1.5,0.5,3.2,1.1,4.9,1.6
		c2.1,0.6,4.2,1.3,6.4,2.1c2.3,0.8,4.3,1.9,6.2,3.2c1.9,1.4,3.4,3.1,4.6,5.1c1.2,2.1,1.8,4.7,1.8,7.8c0,3.2-0.6,6.1-1.9,8.5
		c-1.3,2.4-3,4.4-5.1,6c-2.1,1.6-4.5,2.7-7.3,3.5C520,104.4,517.2,104.8,514.4,104.8z"/>
	<polygon id="M_2_1_" class="st0" points="473.3,103.3 473.3,51.7 448.5,103.3 444.4,103.3 419.8,51.9 419.8,103.3 414.6,103.3 
		414.6,41.9 420.9,41.9 446.6,95.6 472.2,41.9 478.5,41.9 478.5,103.3 	"/>
	<polygon id="E_1_" class="st0" points="359.1,103.3 359.1,41.9 398.5,41.9 398.5,46.4 364.3,46.4 364.3,69.1 396.5,69.1 
		396.5,73.9 364.3,73.9 364.3,98.8 399.9,98.8 399.9,103.3 	"/>
	<polygon id="M_1_1_" class="st0" points="337.2,103.3 337.2,51.7 312.4,103.3 308.3,103.3 283.7,51.9 283.7,103.3 278.5,103.3 
		278.5,41.9 284.8,41.9 310.4,95.6 336.1,41.9 342.4,41.9 342.4,103.3 	"/>
</g>
<g id="Logo_Mark_1_">
	<path id="Left_outer_wing_1_" class="st0" d="M115.9,27.1c-1.4,0.2-2.7,1-3.6,2.3l-58.3,83.8c-1,1.4-1.1,2.9-0.8,4.2
		c1,3.4,5.3,4.8,8.3,2.9l51.6-33.1c0.8-0.5,1.7-0.9,2.6-1.1V27.1z"/>
	<path id="Left_inner_wing_1_" class="st1" d="M151.6,69.1c-1.4-0.3-2.7-1-3.5-2.2l-26.5-37.6c-0.9-1.2-2.2-2-3.5-2.2v58.7
		c1.5,0,3,0.4,4.4,1.1l25.9,16.9c1,0.6,2.2,0.9,3.3,1.1V69.1z"/>
	<path id="Right_inner_wing_1_" class="st0" d="M187.3,27.1c-1.4,0.2-2.7,1-3.6,2.2l-26.5,37.6c-0.9,1.3-2.2,2-3.6,2.2v35.8
		c1.2-0.1,2.3-0.5,3.4-1.1l25.9-16.9c1.4-0.8,2.9-1.2,4.4-1.1V27.1z"/>
	<path id="Right_wing_1_" class="st1" d="M251.2,113.2L193,29.3c-0.9-1.3-2.2-2-3.6-2.3V86c0.9,0.2,1.8,0.6,2.6,1.1l51.6,33.1
		c3.1,2,7.4,0.6,8.3-2.9C252.4,116,252.2,114.5,251.2,113.2z"/>
</g>
</svg>
